# xmcd CD database file generated by Grip 3.3.1
# 
# Track frame offsets:
#       150
#       13172
#       24124
#       35675
#       46358
#       58700
#       69750
#       79999
#       94057
#       104445
#       115813
#       125422
#       136065
#       145609
#       156176
#       168856
#       180410
#       189693
#       198566
#       206655
#       215608
#       226961
#       235507
#       244549
#       254287
#       263723
#       273605
#       282506
#       292824
#       304167
# 
# Disc length: 4176 seconds
# 
# Revision: 2
# Processed by: cddbd v1.5.2PL0 Copyright (c) Steve Scherf et al.
# Submitted via: Grip 3.3.1
# 
DISCID=a8104e1e
DTITLE=Hank Thompson - The Wild Side Of Life
DYEAR=2004
DGENRE=Country
TTITLE0=California Women
TTITLE1=(I've Got A) Humpty Dumpty Heart
TTITLE2=The Green Light
TTITLE3=Whoa Sailor
TTITLE4=The Wild Side Of Life
TTITLE5=Waiting In The Lobby Of Your Heart
TTITLE6=Rub-A-Dub-Dub
TTITLE7=Yesterday's Girl
TTITLE8=Wake Up Irene
TTITLE9=A Broken Heart And A Glass Of Beer
TTITLE10=A Cat Has Nine Lives
TTITLE11=Swing Wide Your Gate Of Love
TTITLE12=I Find You Cheatin' On Me
TTITLE13=Tomorrow Night
TTITLE14=Humpty Dumpty Boogie
TTITLE15=Hangover Heart
TTITLE16=Soft Lips
TTITLE17=She's A Girl Without A Sweetheart
TTITLE18=The Grass Looks Greener
TTITLE19=If I Cry
TTITLE20=Cryin' In The Deep Blue Sea
TTITLE21=I'd Have Never Found Somebody New
TTITLE22=Simple Simon
TTITLE23=When You're Lovin' Your Livin'
TTITLE24=The New Wears Off Too Fast
TTITLE25=I'll Sign My Heart Away
TTITLE26=If Lovin' You Is Wrong
TTITLE27=Most Of All
TTITLE28=It's Better To Have Loved A Little (Than To Have Never Loved At A
TTITLE28=ll)
TTITLE29=No Help Wanted
EXTD=
EXTT0=
EXTT1=
EXTT2=
EXTT3=
EXTT4=
EXTT5=
EXTT6=
EXTT7=
EXTT8=
EXTT9=
EXTT10=
EXTT11=
EXTT12=
EXTT13=
EXTT14=
EXTT15=
EXTT16=
EXTT17=
EXTT18=
EXTT19=
EXTT20=
EXTT21=
EXTT22=
EXTT23=
EXTT24=
EXTT25=
EXTT26=
EXTT27=
EXTT28=
EXTT29=
PLAYORDER=
